Coordinates
version=1
nRows=23
nColumns=38
inDegrees=no

Units are S.I. units (second, meters, Newtons, ...)
If the header above contains a line with 'inDegrees', this indicates whether rotational values are in degrees (yes) or radians (no).

endheader
time	pelvis_tilt	pelvis_list	pelvis_rotation	pelvis_tx	pelvis_ty	pelvis_tz	hip_flexion_r	hip_adduction_r	hip_rotation_r	knee_angle_r	ankle_angle_r	subtalar_angle_r	mtp_angle_r	hip_flexion_l	hip_adduction_l	hip_rotation_l	knee_angle_l	ankle_angle_l	subtalar_angle_l	mtp_angle_l	lumbar_extension	lumbar_bending	lumbar_rotation	arm_flex_r	arm_add_r	arm_rot_r	elbow_flex_r	pro_sup_r	wrist_flex_r	wrist_dev_r	arm_flex_l	arm_add_l	arm_rot_l	elbow_flex_l	pro_sup_l	wrist_flex_l	wrist_dev_l
2.7475	-0.0159084	-0.0468337	3.20951	-0.188535	0.913137	0.0583636	0.56466	-0.0711101	-0.0842837	1.36431	0.021884	0	0	0.217165	0.0925939	-0.0570671	0.801774	0.471245	0	0	-0.470143	-0.152707	0.00322982	-0.236481	-0.607081	0.575816	1.67512	1.36396	0	0	0.674612	-0.285802	0.870609	1.88321	1.46343	0	0
2.75749	-0.0101017	-0.0362742	3.20492	-0.188496	0.918124	0.0588036	0.57987	-0.0580085	-0.0866267	1.30062	0.0343304	0	0	0.185301	0.0837292	-0.0479294	0.771011	0.457297	0	0	-0.457622	-0.138042	-0.00613548	-0.269834	-0.613146	0.554642	1.68317	1.36645	0	0	0.693222	-0.283087	0.875428	1.89389	1.46463	0	0
2.76748	-0.00236438	-0.0258557	3.20044	-0.188847	0.923512	0.0592856	0.592167	-0.0450968	-0.0899362	1.2284	0.0459627	0	0	0.15455	0.0753584	-0.0380897	0.737408	0.436392	0	0	-0.442064	-0.123255	-0.0154945	-0.302326	-0.618297	0.533878	1.69091	1.36903	0	0	0.707862	-0.282296	0.880177	1.90491	1.46397	0	0
2.77747	0.00730924	-0.0159103	3.19636	-0.189578	0.929165	0.0598356	0.601641	-0.0327331	-0.093928	1.14851	0.0567605	0	0	0.125433	0.0678131	-0.0275648	0.701877	0.408629	0	0	-0.423611	-0.108608	-0.0252451	-0.333853	-0.622418	0.513608	1.69831	1.37171	0	0	0.718575	-0.283281	0.884965	1.91613	1.46184	0	0
2.78746	0.0187588	-0.00672368	3.19282	-0.190665	0.934957	0.0604569	0.608353	-0.0211194	-0.098171	1.06202	0.0667381	0	0	0.0982851	0.0613077	-0.016531	0.665334	0.37431	0	0	-0.402577	-0.0943848	-0.0355845	-0.364345	-0.625438	0.493864	1.70545	1.37442	0	0	0.72555	-0.285857	0.889912	1.92741	1.45864	0	0
2.79745	0.0316964	0.00146765	3.18986	-0.192075	0.940766	0.0611353	0.612382	-0.0103406	-0.102142	0.97027	0.0759465	0	0	0.0733015	0.05596	-0.00528321	0.628715	0.333951	0	0	-0.379398	-0.080872	-0.046548	-0.393755	-0.627322	0.474643	1.71246	1.37715	0	0	0.72908	-0.289816	0.895139	1.93859	1.45474	0	0
2.80745	0.0457538	0.00847454	3.18745	-0.193769	0.946475	0.0618465	0.613879	-0.000419227	-0.105294	0.87484	0.0844614	0	0	0.050598	0.0518202	0.00581781	0.592993	0.28828	0	0	-0.354577	-0.0683419	-0.0580553	-0.422032	-0.628067	0.455964	1.71955	1.37993	0	0	0.729525	-0.294947	0.90076	1.94949	1.45043	0	0
2.81744	0.0605254	0.0141532	3.18552	-0.195698	0.951967	0.0625622	0.613107	0.00862961	-0.107135	0.777632	0.0923622	0	0	0.0302575	0.0488973	0.0164001	0.559176	0.238231	0	0	-0.328648	-0.0570319	-0.0699568	-0.449113	-0.627708	0.437858	1.72691	1.38281	0	0	0.727276	-0.301047	0.906868	1.95996	1.44597	0	0
2.82743	0.0756042	0.018407	3.18401	-0.197813	0.957127	0.0632569	0.610464	0.0167557	-0.107319	0.680821	0.0997232	0	0	0.0123636	0.0471745	0.0261357	0.528301	0.184918	0	0	-0.302142	-0.0471231	-0.082074	-0.474908	-0.626317	0.420365	1.73471	1.38586	0	0	0.722722	-0.307925	0.913519	1.96983	1.44151	0	0
2.83742	0.0906081	0.0211964	3.18283	-0.20006	0.961844	0.0639104	0.606473	0.0238698	-0.105709	0.586793	0.106602	0	0	-0.00298213	0.0466036	0.0347654	0.501412	0.129593	0	0	-0.275562	-0.0387183	-0.0942165	-0.499291	-0.623999	0.403532	1.74312	1.38912	0	0	0.716232	-0.31541	0.920731	1.97898	1.43712	0	0
2.84741	0.105195	0.0225524	3.1819	-0.202383	0.966012	0.0645048	0.601736	0.0298916	-0.102388	0.498007	0.113018	0	0	-0.0156617	0.047081	0.0420606	0.479521	0.073578	0	0	-0.249373	-0.0318299	-0.106157	-0.522095	-0.620887	0.387407	1.75227	1.39261	0	0	0.70814	-0.323343	0.928479	1.98727	1.43281	0	0
2.8574	0.119063	0.0225872	3.18106	-0.20472	0.969534	0.0650204	0.596874	0.0348144	-0.0976193	0.416838	0.118923	0	0	-0.0255555	0.0484248	0.047769	0.463575	0.0182241	0	0	-0.224016	-0.0263765	-0.117595	-0.543106	-0.617127	0.372041	1.76228	1.39626	0	0	0.698757	-0.331576	0.936704	1.99457	1.42856	0	0
2.86739	0.131942	0.0214908	3.18006	-0.207009	0.972327	0.0654338	0.592444	0.0387399	-0.0918094	0.34541	0.124177	0	0	-0.0325718	0.0503719	0.0515948	0.454405	-0.0352072	0	0	-0.199921	-0.0221848	-0.128156	-0.562065	-0.612875	0.357483	1.77319	1.4	0	0	0.688376	-0.339973	0.945317	2.00076	1.42427	0	0
2.87738	0.143579	0.0195159	3.17863	-0.209184	0.974323	0.0657199	0.588886	0.0418778	-0.0854636	0.285476	0.128554	0	0	-0.0366751	0.0525896	0.0532107	0.452673	-0.0856379	0	0	-0.177517	-0.0190035	-0.137407	-0.57868	-0.608279	0.343785	1.78504	1.40377	0	0	0.677274	-0.348407	0.954217	2.00573	1.4198	0	0
2.88737	0.153736	0.0169604	3.17648	-0.211188	0.975471	0.0658556	0.586476	0.044528	-0.0791309	0.238321	0.131768	0	0	-0.0379081	0.0546917	0.0522931	0.458831	-0.132244	0	0	-0.157235	-0.016517	-0.144909	-0.592636	-0.60348	0.331011	1.79783	1.40748	0	0	0.665702	-0.356761	0.963299	2.00935	1.41499	0	0
2.89736	0.162195	0.0141498	3.17331	-0.212967	0.975737	0.0658224	0.585319	0.0470558	-0.0733108	0.204692	0.133516	0	0	-0.0363991	0.0562575	0.048554	0.473092	-0.174492	0	0	-0.139487	-0.0143637	-0.150242	-0.60361	-0.598606	0.319249	1.8115	1.41103	0	0	0.65386	-0.364927	0.972444	2.01151	1.40961	0	0
2.90735	0.168764	0.0114206	3.16888	-0.21448	0.975107	0.0656082	0.585352	0.0498601	-0.0683675	0.184781	0.133517	0	0	-0.0323526	0.0568537	0.0417643	0.495424	-0.212134	0	0	-0.124661	-0.0121574	-0.153041	-0.611269	-0.593777	0.308627	1.82596	1.41431	0	0	0.641882	-0.372812	0.981518	2.01211	1.40346	0	0
2.91735	0.17328	0.00910847	3.16295	-0.215698	0.973587	0.0652086	0.586373	0.053341	-0.0644866	0.17825	0.131577	0	0	-0.0260397	0.0560558	0.0317859	0.525568	-0.245137	0	0	-0.113102	-0.00950598	-0.153013	-0.615272	-0.589108	0.299322	1.84109	1.41719	0	0	0.629818	-0.380333	0.990361	2.01103	1.39632	0	0
2.92734	0.175616	0.00753311	3.15535	-0.2166	0.971201	0.064629	0.588086	0.0578622	-0.0616876	0.184329	0.127663	0	0	-0.0177777	0.0534758	0.0186117	0.563076	-0.273586	0	0	-0.105114	-0.00603238	-0.149971	-0.615259	-0.584706	0.291575	1.85672	1.41952	0	0	0.617622	-0.38742	0.998755	2.00818	1.38801	0	0
2.93733	0.175674	0.00698126	3.146	-0.217174	0.967998	0.0638854	0.590146	0.0637127	-0.0598848	0.201938	0.122	0	0	-0.00790792	0.0487945	0.00241015	0.607355	-0.297576	0	0	-0.100955	-0.00140009	-0.143874	-0.610839	-0.580669	0.285695	1.87263	1.42116	0	0	0.605147	-0.394027	1.00642	2.00347	1.3784	0	0
2.94732	0.173404	0.00768056	3.1349	-0.217416	0.964044	0.0630051	0.592212	0.0710647	-0.0589536	0.229812	0.115198	0	0	0.00324599	0.0418023	-0.0164371	0.657718	-0.317119	0	0	-0.100813	0.00465217	-0.134865	-0.601586	-0.577068	0.282071	1.88857	1.42199	0	0	0.592137	-0.400127	1.01299	1.99682	1.36745	0	0
2.95731	0.168829	0.00977147	3.12221	-0.217331	0.959422	0.062025	0.594001	0.0799374	-0.0587428	0.266616	0.10833	0	0	0.0154432	0.0324411	-0.0373168	0.713411	-0.332115	0	0	-0.104759	0.0122768	-0.12331	-0.587019	-0.573937	0.281194	1.90421	1.42198	0	0	0.578209	-0.405723	1.01802	1.98818	1.35539	0	0
2.9673	0.162081	0.0132926	3.1082	-0.216927	0.954231	0.0609897	0.595322	0.0901912	-0.0590404	0.311016	0.102876	0	0	0.028585	0.0208304	-0.0593922	0.773634	-0.34237	0	0	-0.112701	0.0215031	-0.109816	-0.566589	-0.57126	0.283677	1.91918	1.42116	0	0	0.562831	-0.410864	1.02095	1.97751	1.3425	0	0
